<svg width="32" height="32" viewBox="0 0 32 32" fill="none" xmlns="http://www.w3.org/2000/svg">
<path d="M32 17C32 17.2652 31.8947 17.5196 31.7071 17.7071C31.5196 17.8946 31.2652 18 31 18H25C24.7348 18 24.4804 17.8946 24.2929 17.7071C24.1054 17.5196 24 17.2652 24 17C24 16.7348 24.1054 16.4804 24.2929 16.2929C24.4804 16.1054 24.7348 16 25 16H31C31.2652 16 31.5196 16.1054 31.7071 16.2929C31.8947 16.4804 32 16.7348 32 17ZM24.7663 24.3562C24.937 24.5595 25.02 24.8222 24.997 25.0866C24.9741 25.351 24.847 25.5955 24.6438 25.7662C24.4405 25.937 24.1778 26.02 23.9134 25.997C23.649 25.974 23.4045 25.847 23.2338 25.6437C20.7188 22.6487 17.2613 21 13.5 21C9.73876 21 6.28126 22.6487 3.76626 25.6437C3.59553 25.8468 3.35112 25.9737 3.08681 25.9966C2.82251 26.0194 2.55994 25.9364 2.35689 25.7656C2.15383 25.5949 2.02691 25.3505 2.00406 25.0862C1.9812 24.8219 2.06428 24.5593 2.23501 24.3562C4.10251 22.1337 6.42501 20.555 9.00626 19.71C7.43864 18.7336 6.23166 17.2733 5.56793 15.5498C4.9042 13.8264 4.81982 11.9337 5.32757 10.1581C5.83532 8.38242 6.90757 6.82045 8.3821 5.70847C9.85662 4.59649 11.6532 3.995 13.5 3.995C15.3468 3.995 17.1434 4.59649 18.6179 5.70847C20.0925 6.82045 21.1647 8.38242 21.6724 10.1581C22.1802 11.9337 22.0958 13.8264 21.4321 15.5498C20.7684 17.2733 19.5614 18.7336 17.9938 19.71C20.575 20.555 22.8975 22.1337 24.7663 24.3562ZM13.5 19C14.7856 19 16.0423 18.6188 17.1112 17.9045C18.1801 17.1903 19.0133 16.1752 19.5052 14.9874C19.9972 13.7997 20.1259 12.4928 19.8751 11.2319C19.6243 9.97103 19.0052 8.81284 18.0962 7.9038C17.1872 6.99476 16.029 6.37569 14.7681 6.12489C13.5072 5.87409 12.2003 6.00281 11.0126 6.49478C9.82485 6.98675 8.80969 7.81987 8.09546 8.88879C7.38123 9.95771 7.00001 11.2144 7.00001 12.5C7.002 14.2233 7.68745 15.8754 8.90601 17.094C10.1246 18.3126 11.7767 18.998 13.5 19Z" fill="white"/>
</svg>
